<svg width="16" height="16" viewBox="0 0 16 16" fill="none" xmlns="http://www.w3.org/2000/svg">
<path d="M13.389 10.1332L14.1904 10.6141C14.3483 10.7088 14.3994 10.9135 14.3047 11.0714C14.2765 11.1183 14.2373 11.1576 14.1904 11.1857L8.34308 14.6941C8.13201 14.8208 7.86821 14.8208 7.65715 14.6941L1.80983 11.1857C1.65197 11.091 1.60079 10.8863 1.6955 10.7284C1.72365 10.6815 1.76291 10.6422 1.80983 10.6141L2.61123 10.1332L8.00015 13.3665L13.389 10.1332ZM13.389 6.99985L14.1904 7.48072C14.3483 7.57545 14.3994 7.78018 14.3047 7.93805C14.2765 7.98498 14.2373 8.02425 14.1904 8.05238L8.00015 11.7665L1.80983 8.05238C1.65197 7.95765 1.60079 7.75292 1.6955 7.59505C1.72365 7.54812 1.76291 7.50885 1.80983 7.48072L2.61123 6.99985L8.00015 10.2332L13.389 6.99985ZM8.34308 0.872344L14.1904 4.38072C14.3483 4.47543 14.3994 4.68018 14.3047 4.83804C14.2765 4.88496 14.2373 4.92423 14.1904 4.95238L8.00015 8.66652L1.80983 4.95238C1.65197 4.85766 1.60079 4.65291 1.6955 4.49505C1.72365 4.44813 1.76291 4.40887 1.80983 4.38072L7.65715 0.872344C7.86821 0.745677 8.13201 0.745677 8.34308 0.872344ZM8.00015 2.22147L3.92498 4.66655L8.00015 7.11165L12.0753 4.66655L8.00015 2.22147Z" fill="#000091"/>
</svg>
